# xmcd CD database file
#
# Track frame offsets:
#	182
#	13875
#	25392
#	34095
#	47195
#	62742
#	75865
#	89325
#	102600
#	116290
#	129137
#	141652
#	158015
#	169447
#	182012
#	195425
#	208655
#	219245
#	232617
#	247465
#
# Disc length: 3466 seconds
#
# Revision: 1
# Processed by: cddbd v1.4PL0 Copyright (c) Steve Scherf et al.
# Submitted via: Feurio! 1.63 - http://www.feurio.com
#
DISCID=130d8814
DTITLE=B.B. King - Gold Collection [CD 2/2)
DYEAR=1993
DGENRE=blues
TTITLE0=You Upset Me Baby
TTITLE1=Shake It Up And Go
TTITLE2=A New Way Of Driving
TTITLE3=Woke Up This Morning
TTITLE4=Five Long Years
TTITLE5=Blind Love
TTITLE6=Let Me Love You
TTITLE7=Crying Won't Help You
TTITLE8=You Know I Love You
TTITLE9=Bad Luck
TTITLE10=Every Day I Have The Blues
TTITLE11=The Other Night Blues
TTITLE12=Did You Ever Love A Woman?
TTITLE13=Rock Me Baby
TTITLE14=The Woman I Love
TTITLE15=Questionnaire Blues
TTITLE16=Fine Looking Woman
TTITLE17=Servant's Prayer
TTITLE18=Precious Lord
TTITLE19=I'm Working On The Building
EXTD=
EXTT0=
EXTT1=
EXTT2=
EXTT3=
EXTT4=
EXTT5=
EXTT6=
EXTT7=
EXTT8=
EXTT9=
EXTT10=
EXTT11=
EXTT12=
EXTT13=
EXTT14=
EXTT15=
EXTT16=
EXTT17=
EXTT18=
EXTT19=
PLAYORDER=
